Coordinates
version=1
nRows=18
nColumns=22
inDegrees=yes

Units are S.I. units (second, meters, Newtons, ...)
If the header above contains a line with 'inDegrees', this indicates whether rotational values are in degrees (yes) or radians (no).

endheader
time	pelvis_tilt	pelvis_list	pelvis_rotation	pelvis_tx	pelvis_ty	pelvis_tz	hip_flexion_r	hip_adduction_r	hip_rotation_r	knee_angle_r	ankle_angle_r	subtalar_angle_r	hip_flexion_l	hip_adduction_l	hip_rotation_l	knee_angle_l	ankle_angle_l	subtalar_angle_l	lumbar_extension	lumbar_bending	lumbar_rotation
      0.01000000	     -1.66782447	     -5.44403619	      1.69837391	      0.14187651	      0.93179530	      1.19141473	      1.20977546	      7.14333867	    -14.51058271	    -14.56685520	     14.47091512	      0.30950118	     19.77223153	     -8.13640253	     -1.03271024	    -47.76140891	      9.39272214	     -2.85664710	    -12.86724978	      2.75644922	     -2.78559620
      0.02000000	     -1.52897507	     -5.37068871	      1.82180937	      0.14346109	      0.93170848	      1.19094961	      1.00840172	      7.05514284	    -14.55456013	    -14.68211485	     14.59884172	      0.18815074	     20.57170812	     -7.92586155	     -0.62759621	    -49.29823648	      8.52309982	     -3.08514915	    -13.16604494	      2.71427166	     -2.65443469
      0.03000000	     -1.38708178	     -5.28392565	      1.93944781	      0.14537423	      0.93156473	      1.19040307	      0.78666067	      6.94946730	    -14.58077736	    -14.81136303	     14.76784213	      0.01830293	     21.49360608	     -7.67557415	     -0.21884806	    -50.98374970	      7.61239220	     -3.33568730	    -13.48438000	      2.65728063	     -2.47495146
      0.04000000	     -1.25445304	     -5.18449686	      2.04595791	      0.14757271	      0.93136608	      1.18976851	      0.55672174	      6.82343877	    -14.60912229	    -14.94796900	     14.96946112	     -0.17290270	     22.49091795	     -7.38588773	      0.16567338	    -52.68930505	      6.76183837	     -3.56253994	    -13.79546243	      2.58634258	     -2.24584730
      0.05000000	     -1.13613655	     -5.06910899	      2.12975574	      0.15001131	      0.93113140	      1.18906390	      0.32387687	      6.67172012	    -14.63408578	    -15.08749948	     15.19200734	     -0.35422058	     23.51484750	     -7.06341457	      0.48802722	    -54.30016881	      6.04491538	     -3.70852971	    -14.08466093	      2.49198197	     -1.97587000
      0.06000000	     -1.03460165	     -4.93371385	      2.18327659	      0.15264556	      0.93088846	      1.18830917	      0.08897570	      6.48938469	    -14.65354201	    -15.21973289	     15.42453082	     -0.48530597	     24.52460722	     -6.71257539	      0.72664794	    -55.71874192	      5.50102234	     -3.72877057	    -14.34463178	      2.36673769	     -1.67973276
      0.07000000	     -0.96410858	     -4.78134849	      2.21029946	      0.15547267	      0.93062088	      1.18749978	     -0.13083652	      6.27756387	    -14.67813679	    -15.34886831	     15.67551424	     -0.55832557	     25.51124502	     -6.34665125	      0.86692191	    -56.88472082	      5.15497463	     -3.59751378	    -14.54679908	      2.21459612	     -1.35275693
      0.08000000	     -0.88047716	     -4.62283227	      2.20661936	      0.15846810	      0.93041614	      1.18668124	     -0.39966650	      6.05645754	    -14.70247193	    -15.43491530	     15.96490887	     -0.54323135	     26.41249916	     -5.99939913	      0.89397535	    -57.75739336	      4.95635929	     -3.41355216	    -14.74990119	      2.04327870	     -1.01589215
      0.09000000	     -0.91703890	     -4.44526377	      2.18661516	      0.16157731	      0.93006829	      1.18580751	     -0.54251795	      5.79846793	    -14.74437124	    -15.53099278	     16.18704111	     -0.49279354	     27.36792708	     -5.61954440	      0.88676471	    -58.31190594	      4.91202410	     -2.82515088	    -14.78899819	      1.84056541	     -0.66773490
      0.10000000	     -0.91291149	     -4.23182913	      2.14180391	      0.16487903	      0.92983543	      1.18493604	     -0.77027181	      5.50472315	    -14.77467106	    -15.57895466	     16.48962428	     -0.40401250	     28.17878663	     -5.24936530	      0.74737413	    -58.52224833	      4.97337096	     -2.51195629	    -14.85827300	      1.58385410	     -0.31758182
      0.11000000	     -0.97305876	     -4.05716328	      2.11289949	      0.16831610	      0.92951608	      1.18402798	     -0.96217339	      5.25474587	    -14.83393249	    -15.57412460	     16.68290218	     -0.25893195	     29.00673183	     -4.93393512	      0.59908524	    -58.43928511	      4.97312841	     -1.78231598	    -14.82807098	      1.36679842	      0.02314115
      0.12000000	     -1.02155452	     -3.86342152	      2.07347767	      0.17194225	      0.92923591	      1.18311177	     -1.20777094	      4.99086612	    -14.86427482	    -15.51790426	     16.90618211	     -0.15272195	     29.72604583	     -4.63744692	      0.38007535	    -58.02904088	      5.04117944	     -1.28706673	    -14.79190280	      1.11853341	      0.36145096
      0.13000000	     -1.08063550	     -3.68688759	      2.05065044	      0.17574702	      0.92893219	      1.18218278	     -1.48542614	      4.75770678	    -14.88973845	    -15.39769546	     17.10181185	     -0.06550596	     30.38396343	     -4.38610445	      0.14626456	    -57.32833861	      5.10558201	     -0.84801574	    -14.72481711	      0.88087568	      0.68980141
      0.14000000	     -1.14462364	     -3.52376678	      2.04525784	      0.17973599	      0.92859865	      1.18120878	     -1.79801463	      4.54796710	    -14.89998118	    -15.22298245	     17.27431226	     -0.00387462	     30.97176078	     -4.16831897	     -0.08513282	    -56.34982606	      5.17259563	     -0.53139740	    -14.63456043	      0.65695896	      0.99518610
      0.15000000	     -1.23153893	     -3.39943499	      2.08231565	      0.18388644	      0.92817670	      1.18017399	     -2.13281769	      4.39556154	    -14.89332301	    -14.97512105	     17.38842061	      0.02499143	     31.52872408	     -3.99022250	     -0.25943863	    -55.12887366	      5.25730575	     -0.41771077	    -14.50216328	      0.47816917	      1.24531460
      0.16000000	     -1.28258900	     -3.26044123	      2.11738486	      0.18821959	      0.92775858	      1.17911343	     -2.51240289	      4.22111044	    -14.92847530	    -14.74564847	     17.58511886	      0.06526063	     31.96355971	     -3.83252546	     -0.45819612	    -53.65797015	      5.26167201	     -0.27012857	    -14.40350611	      0.27351535	      1.53069330
      0.17000000	     -1.34348109	     -3.16753116	      2.21153506	      0.19270571	      0.92724312	      1.17795465	     -2.92719567	      4.11312098	    -14.95627156	    -14.44489070	     17.74142443	      0.09577599	     32.35983757	     -3.70173364	     -0.55779087	    -51.98551064	      5.26513501	     -0.24458784	    -14.28513612	      0.12725439	      1.73073381
      0.18000000	     -1.40260475	     -3.10019024	      2.33760964	      0.19734899	      0.92663569	      1.17671727	     -3.36285910	      4.03592234	    -15.00826888	    -14.13029621	     17.90748719	      0.12684303	     32.69654515	     -3.59576945	     -0.60684089	    -50.12512233	      5.24893243	     -0.32903816	    -14.16276495	      0.01158720	      1.89118518
